<svg width="16" height="16" viewBox="0 0 16 16" fill="none" xmlns="http://www.w3.org/2000/svg">
<rect width="16" height="16" rx="3" fill="#010027"/>
<path d="M9.13281 1.625H11.4766V9.5C11.4766 10.224 11.3151 10.8646 10.9922 11.4219C10.6745 11.974 10.224 12.401 9.64062 12.7031C9.05729 13.0052 8.39844 13.1562 7.66406 13.1562C6.46094 13.1562 5.52344 12.8516 4.85156 12.2422C4.17969 11.6276 3.84375 10.7604 3.84375 9.64062H6.20312C6.20312 10.1979 6.32031 10.6094 6.55469 10.875C6.78906 11.1406 7.15885 11.2734 7.66406 11.2734C8.11198 11.2734 8.46875 11.1198 8.73438 10.8125C9 10.5052 9.13281 10.0677 9.13281 9.5V1.625Z" fill="#E31B6D"/>
</svg>
